<svg width="190" height="190" viewBox="0 0 190 190" fill="none" xmlns="http://www.w3.org/2000/svg">
<path d="M44.544 137.156H26V52H66.382C70.286 52 73.824 52.6507 76.996 53.952C80.168 55.2533 82.852 57.124 85.048 59.564C87.3253 61.9227 89.074 64.7693 90.294 68.104C91.514 71.4387 92.124 75.1393 92.124 79.206C92.124 84.9807 90.8227 90.0233 88.22 94.334C85.6987 98.6447 81.8353 101.776 76.63 103.728L93.344 137.156H72.726L57.842 105.924H44.544V137.156ZM64.064 90.308C66.8293 90.308 68.9847 89.6167 70.53 88.234C72.1567 86.77 72.97 84.6553 72.97 81.89V76.522C72.97 73.7567 72.1567 71.6827 70.53 70.3C68.9847 68.836 66.8293 68.104 64.064 68.104H44.544V90.308H64.064Z" fill="#91BFEB"/>
<path d="M101.009 137.156L122.115 104.582L101.253 73.106H121.749L133.705 93.236H134.193L145.783 73.106H164.815L143.587 105.192L164.937 137.156H144.441L132.119 116.294H131.631L119.797 137.156H101.009Z" fill="#91BFEB"/>
</svg>
